<?xml version="1.0" standalone="no"?>
<!DOCTYPE svg PUBLIC "-//W3C//DTD SVG 20010904//EN"
 "http://www.w3.org/TR/2001/REC-SVG-20010904/DTD/svg10.dtd">
<svg version="1.0" xmlns="http://www.w3.org/2000/svg"
 width="260.000000pt" height="260.000000pt" viewBox="0 0 260.000000 260.000000"
 preserveAspectRatio="xMidYMid meet">
<metadata>
Created by potrace 1.14, written by Peter Selinger 2001-2017
</metadata>
<g transform="translate(0.000000,260.000000) scale(0.100000,-0.100000)"
fill="#000000" stroke="none">
<path d="M1119 2060 c-282 -68 -505 -288 -575 -564 l-15 -61 -67 -32 c-129
-62 -254 -160 -289 -226 -64 -124 67 -233 317 -263 30 -4 62 -8 70 -10 8 -1
27 -3 41 -3 19 -1 33 -12 52 -40 94 -141 292 -283 442 -316 116 -26 276 -30
367 -11 284 62 523 289 593 567 l17 64 70 35 c315 157 391 332 184 428 -64 31
-246 69 -332 71 -14 1 -32 16 -49 43 -100 151 -279 273 -465 317 -104 25 -259
25 -361 1z m1011 -425 c69 -13 88 -19 122 -36 38 -19 58 -45 58 -73 0 -27 -58
-82 -128 -123 -82 -49 -102 -56 -103 -40 -6 84 -25 160 -63 249 l-16 38 52 -5
c29 -3 64 -7 78 -10z m-1607 -362 c3 -60 8 -117 11 -128 2 -11 8 -35 12 -53
l7 -33 -59 6 c-307 30 -331 140 -59 279 39 19 73 36 76 36 3 0 9 -48 12 -107z"/>
</g>
</svg>
